<svg xmlns="http://www.w3.org/2000/svg" width="24" height="24" fill="none" viewBox="0 0 24 24" aria-hidden="true"><path fill="currentColor" fill-rule="evenodd" d="M18 3a3 3 0 0 1 3 3v12a3 3 0 0 1-3 3H6a3 3 0 0 1-3-3V6a3 3 0 0 1 3-3h12Zm0 1H6a2 2 0 0 0-1.995 1.85L4 6v12a2 2 0 0 0 1.85 1.994L6 20h12a2 2 0 0 0 1.994-1.85L20 18V6a2 2 0 0 0-1.85-1.995L18 4Zm-3 4.5A1.5 1.5 0 0 0 13.5 7h-5A1.5 1.5 0 0 0 7 8.5v5A1.5 1.5 0 0 0 8.5 15h5a1.5 1.5 0 0 0 1.5-1.5v-5ZM8.5 8h5l.09.008A.5.5 0 0 1 14 8.5v5l-.008.09a.5.5 0 0 1-.492.41h-5l-.09-.008A.5.5 0 0 1 8 13.5v-5l.008-.09A.5.5 0 0 1 8.5 8Zm.585 8a1.5 1.5 0 0 0 1.415 1h5a1.5 1.5 0 0 0 1.5-1.5v-5a1.5 1.5 0 0 0-1-1.415V15.5a.5.5 0 0 1-.5.5H9.085Z" clip-rule="evenodd"></path></svg>